<!DOCTYPE svg PUBLIC "-//W3C//DTD SVG 1.1//EN" "http://www.w3.org/Graphics/SVG/1.1/DTD/svg11.dtd">

<!-- Uploaded to: SVG Repo, www.svgrepo.com, Transformed by: SVG Repo Mixer Tools -->
<svg fill="#000000" width="256px" height="256px" viewBox="-3.2 -3.2 38.40 38.40" version="1.1" xmlns="http://www.w3.org/2000/svg" transform="matrix(1, 0, 0, 1, 0, 0)rotate(0)">

<g id="SVGRepo_bgCarrier" stroke-width="0"/>

<g id="SVGRepo_tracerCarrier" stroke-linecap="round" stroke-linejoin="round" stroke="#CCCCCC" stroke-width="0.192"/>

<g id="SVGRepo_iconCarrier"> <title>diamond</title> <path d="M30.531 15.47l-14.001-14c-0.136-0.136-0.323-0.22-0.53-0.22s-0.395 0.084-0.53 0.22l-14 14c-0.136 0.136-0.22 0.323-0.22 0.53s0.084 0.395 0.22 0.53l14 14.001c0.136 0.135 0.323 0.219 0.53 0.219s0.394-0.084 0.53-0.219l14.001-14.001c0.135-0.136 0.218-0.323 0.218-0.53s-0.083-0.394-0.218-0.53l0 0zM16 28.939l-12.939-12.939 12.939-12.939 12.939 12.939z"/> </g>

</svg>

